<svg width="21" height="20" viewBox="0 0 21 20" fill="none" xmlns="http://www.w3.org/2000/svg">
<g clip-path="url(#clip0_10_4)">
<path d="M20.0159 3.79875C19.2722 4.125 18.4797 4.34125 17.6534 4.44625C18.5034 3.93875 19.1522 3.14125 19.4572 2.18C18.6647 2.6525 17.7897 2.98625 16.8572 3.1725C16.1047 2.37125 15.0322 1.875 13.8622 1.875C11.5922 1.875 9.76469 3.7175 9.76469 5.97625C9.76469 6.30125 9.79219 6.61375 9.85969 6.91125C6.45094 6.745 3.43469 5.11125 1.40844 2.6225C1.05469 3.23625 0.847188 3.93875 0.847188 4.695C0.847188 6.115 1.57844 7.37375 2.66844 8.1025C2.00969 8.09 1.36344 7.89875 0.815938 7.5975C0.815938 7.61 0.815938 7.62625 0.815938 7.6425C0.815938 9.635 2.23719 11.29 4.10094 11.6712C3.76719 11.7625 3.40344 11.8062 3.02594 11.8062C2.76344 11.8062 2.49844 11.7913 2.24969 11.7362C2.78094 13.36 4.28844 14.5538 6.08094 14.5925C4.68594 15.6838 2.91469 16.3412 0.997188 16.3412C0.660938 16.3412 0.338438 16.3263 0.0159378 16.285C1.83219 17.4563 3.98469 18.125 6.30594 18.125C13.8509 18.125 17.9759 11.875 17.9759 6.4575C17.9759 6.27625 17.9697 6.10125 17.9609 5.9275C18.7747 5.35 19.4584 4.62875 20.0159 3.79875Z" fill="white"/>
</g>
<defs>
<clipPath id="clip0_10_4">
<rect width="20" height="20" fill="white" transform="translate(0.0159378)"/>
</clipPath>
</defs>
</svg>
